<?xml version="1.0" standalone="no"?>
<!DOCTYPE svg PUBLIC "-//W3C//DTD SVG 20010904//EN"
 "http://www.w3.org/TR/2001/REC-SVG-20010904/DTD/svg10.dtd">
<svg version="1.0" xmlns="http://www.w3.org/2000/svg"
 width="2400.000000pt" height="2400.000000pt" viewBox="0 0 2400.000000 2400.000000"
 preserveAspectRatio="xMidYMid meet">
<metadata>
Created by potrace 1.14, written by Peter Selinger 2001-2017
</metadata>
<g transform="translate(0.000000,2400.000000) scale(0.100000,-0.100000)"
fill="#000000" stroke="none">
<path d="M11863 22736 c-79 -19 -178 -66 -241 -116 -76 -59 -10159 -9732
-10220 -9803 -171 -200 -199 -486 -69 -717 47 -84 168 -198 257 -242 148 -74
-146 -68 3302 -68 l3108 0 2 -5023 3 -5022 22 -58 c85 -221 237 -363 449 -417
76 -20 126 -20 3524 -20 3398 0 3448 0 3524 20 227 58 398 229 456 456 20 76
20 134 20 5071 l0 4993 3108 0 c3445 0 3153 -6 3301 67 89 43 211 158 258 243
128 228 103 514 -64 712 -26 31 -2337 2252 -5134 4935 -3381 3242 -5105 4889
-5142 4911 -132 79 -319 111 -464 78z"/>
</g>
</svg>
